<svg width="174" height="37" viewBox="0 0 174 37" fill="none" xmlns="http://www.w3.org/2000/svg">
<path d="M6.388 15.66V20.772H14.632V25.524H6.388V31.068H15.712V36H0.232V10.728H15.712V15.66H6.388ZM35.1886 20.808V25.92H19.3486V20.808H35.1886ZM49.7354 36.252C47.8874 36.252 46.2314 35.952 44.7674 35.352C43.3034 34.752 42.1274 33.864 41.2394 32.688C40.3754 31.512 39.9194 30.096 39.8714 28.44H46.4234C46.5194 29.376 46.8434 30.096 47.3954 30.6C47.9474 31.08 48.6674 31.32 49.5554 31.32C50.4674 31.32 51.1874 31.116 51.7154 30.708C52.2434 30.276 52.5074 29.688 52.5074 28.944C52.5074 28.32 52.2914 27.804 51.8594 27.396C51.4514 26.988 50.9354 26.652 50.3114 26.388C49.7114 26.124 48.8474 25.824 47.7194 25.488C46.0874 24.984 44.7554 24.48 43.7234 23.976C42.6914 23.472 41.8034 22.728 41.0594 21.744C40.3154 20.76 39.9434 19.476 39.9434 17.892C39.9434 15.54 40.7954 13.704 42.4994 12.384C44.2034 11.04 46.4234 10.368 49.1594 10.368C51.9434 10.368 54.1874 11.04 55.8914 12.384C57.5954 13.704 58.5074 15.552 58.6274 17.928H51.9674C51.9194 17.112 51.6194 16.476 51.0674 16.02C50.5154 15.54 49.8074 15.3 48.9434 15.3C48.1994 15.3 47.5994 15.504 47.1434 15.912C46.6874 16.296 46.4594 16.86 46.4594 17.604C46.4594 18.42 46.8434 19.056 47.6114 19.512C48.3794 19.968 49.5794 20.46 51.2114 20.988C52.8434 21.54 54.1634 22.068 55.1714 22.572C56.2034 23.076 57.0914 23.808 57.8354 24.768C58.5794 25.728 58.9514 26.964 58.9514 28.476C58.9514 29.916 58.5794 31.224 57.8354 32.4C57.1154 33.576 56.0594 34.512 54.6674 35.208C53.2754 35.904 51.6314 36.252 49.7354 36.252ZM80.9198 10.728V15.66H74.2238V36H68.0678V15.66H61.3718V10.728H80.9198ZM99.7413 31.536H90.3093L88.7973 36H82.3533L91.4973 10.728H98.6253L107.769 36H101.253L99.7413 31.536ZM98.1573 26.784L95.0253 17.532L91.9293 26.784H98.1573ZM99.2373 5.652L90.5613 9.288V5.04L99.2373 0.863997V5.652ZM109.508 23.328C109.508 20.832 110.048 18.612 111.128 16.668C112.208 14.7 113.708 13.176 115.628 12.096C117.572 10.992 119.768 10.44 122.216 10.44C125.216 10.44 127.784 11.232 129.92 12.816C132.056 14.4 133.484 16.56 134.204 19.296H127.436C126.932 18.24 126.212 17.436 125.276 16.884C124.364 16.332 123.32 16.056 122.144 16.056C120.248 16.056 118.712 16.716 117.536 18.036C116.36 19.356 115.772 21.12 115.772 23.328C115.772 25.536 116.36 27.3 117.536 28.62C118.712 29.94 120.248 30.6 122.144 30.6C123.32 30.6 124.364 30.324 125.276 29.772C126.212 29.22 126.932 28.416 127.436 27.36H134.204C133.484 30.096 132.056 32.256 129.92 33.84C127.784 35.4 125.216 36.18 122.216 36.18C119.768 36.18 117.572 35.64 115.628 34.56C113.708 33.456 112.208 31.932 111.128 29.988C110.048 28.044 109.508 25.824 109.508 23.328ZM144.13 10.728V36H137.974V10.728H144.13ZM160.543 36.252C158.167 36.252 155.983 35.7 153.991 34.596C152.023 33.492 150.451 31.956 149.275 29.988C148.123 27.996 147.547 25.764 147.547 23.292C147.547 20.82 148.123 18.6 149.275 16.632C150.451 14.664 152.023 13.128 153.991 12.024C155.983 10.92 158.167 10.368 160.543 10.368C162.919 10.368 165.091 10.92 167.059 12.024C169.051 13.128 170.611 14.664 171.739 16.632C172.891 18.6 173.467 20.82 173.467 23.292C173.467 25.764 172.891 27.996 171.739 29.988C170.587 31.956 169.027 33.492 167.059 34.596C165.091 35.7 162.919 36.252 160.543 36.252ZM160.543 30.636C162.559 30.636 164.167 29.964 165.367 28.62C166.591 27.276 167.203 25.5 167.203 23.292C167.203 21.06 166.591 19.284 165.367 17.964C164.167 16.62 162.559 15.948 160.543 15.948C158.503 15.948 156.871 16.608 155.647 17.928C154.447 19.248 153.847 21.036 153.847 23.292C153.847 25.524 154.447 27.312 155.647 28.656C156.871 29.976 158.503 30.636 160.543 30.636Z" fill="white"/>
</svg>
